<svg width="25" height="24" viewBox="0 0 25 24" fill="none" xmlns="http://www.w3.org/2000/svg">
<mask id="mask0_142_1351" style="mask-type:alpha" maskUnits="userSpaceOnUse" x="0" y="0" width="25" height="24">
<rect x="0.25" width="24" height="24" fill="#D9D9D9"/>
</mask>
<g mask="url(#mask0_142_1351)">
<path d="M7.29625 15.975C7.00563 15.975 6.75859 15.8733 6.55516 15.6698C6.35172 15.4664 6.25 15.2194 6.25 14.9288C6.25 14.6381 6.35172 14.3911 6.55516 14.1877C6.75859 13.9842 7.00563 13.8825 7.29625 13.8825H16.3637C16.6544 13.8825 16.9014 13.9842 17.1048 14.1877C17.3083 14.3911 17.41 14.6381 17.41 14.9288C17.41 15.2194 17.3083 15.4664 17.1048 15.6698C16.9014 15.8733 16.6544 15.975 16.3637 15.975H7.29625ZM7.29625 11.0925C7.00563 11.0925 6.75859 10.9908 6.55516 10.7873C6.35172 10.5839 6.25 10.3369 6.25 10.0462C6.25 9.75563 6.35172 9.50859 6.55516 9.30516C6.75859 9.10172 7.00563 9 7.29625 9H16.3637C16.6544 9 16.9014 9.10172 17.1048 9.30516C17.3083 9.50859 17.41 9.75563 17.41 10.0462C17.41 10.3369 17.3083 10.5839 17.1048 10.7873C16.9014 10.9908 16.6544 11.0925 16.3637 11.0925H7.29625Z" fill="#EDEDED"/>
</g>
</svg>
